<?xml version="1.0"?>
<svg width="640" height="480" xmlns="http://www.w3.org/2000/svg" xmlns:svg="http://www.w3.org/2000/svg">
 <!-- Created with SVG-edit - http://svg-edit.googlecode.com/ -->
 <defs>
  <filter id="svg_6_blur">
   <feGaussianBlur stdDeviation="0.6"/>
  </filter>
  <pattern height="100" width="100" y="0" x="0" patternUnits="userSpaceOnUse" id="gridpattern">
   <image height="100" width="100" y="0" x="0"/>
  </pattern>
 </defs>
 <g>
  <title>Layer 1</title>
  <path fill="#FF0000" stroke="#000000" stroke-width="0" stroke-dasharray="null" stroke-linejoin="null" stroke-linecap="null" id="svg_3"/>
  <path fill="none" stroke="#000000" stroke-width="0" stroke-dasharray="null" stroke-linejoin="null" stroke-linecap="null" id="svg_6" d="m155,99c-1.328674,-1.763832 -2.128326,-2.362068 -2.594666,-2.665337c-0.985672,-0.640984 -1.506943,-0.941483 -2.042664,-1.197334c-1.494873,-0.713905 -2.01265,-0.842369 -3.11467,-0.99334c-0.640701,-0.087776 -1.382507,-0.108223 -2.239502,-0.125999c-0.997696,-0.020691 -3.508514,-0.024117 -5.05983,-0.015663c-1.73938,0.009483 -3.645813,0.036743 -5.694,0.147003c-2.172852,0.116966 -4.448563,0.311234 -6.792,0.651001c-2.412216,0.349739 -7.315857,1.472488 -9.739166,2.301003c-2.443703,0.835487 -4.835724,1.860107 -7.1595,3.023994c-2.317451,1.160728 -4.547134,2.455902 -6.6735,3.852005c-2.09127,1.373047 -5.921486,4.321014 -7.6315,5.866165c-1.657715,1.497871 -3.179535,3.054825 -4.563004,4.6605c-1.354431,1.571976 -2.585213,3.202759 -3.698997,4.876503c-1.102303,1.656487 -3.02626,5.10537 -3.867004,6.883667c-0.839439,1.775536 -1.588135,3.587929 -2.25,5.422493c-0.658134,1.824265 -1.227554,3.665924 -1.709999,5.512512c-0.477379,1.827209 -1.196945,5.463638 -1.440498,7.257828c-0.24012,1.768936 -0.396736,3.527359 -0.481499,5.270996c-0.084061,1.72934 -0.095604,3.45108 -0.0495,5.16301c0.045967,1.70697 0.279228,5.111343 0.469162,6.810181c0.191277,1.710815 0.448128,3.439178 0.842995,5.173477c0.405571,1.781281 0.953705,3.59726 1.689003,5.425522c0.772049,1.919601 2.920952,5.896896 4.310326,7.950317c1.475174,2.180222 3.183914,4.377029 5.07,6.601501c1.969551,2.322891 4.121727,4.646988 6.420006,6.979492c2.367897,2.403168 7.480095,7.19104 10.195168,9.568329c2.766083,2.421967 5.645302,4.819489 8.635498,7.189514c3.045982,2.414246 6.207222,4.799652 9.481499,7.153488c3.334923,2.39743 10.3377,7.116867 14.001671,9.433502c3.713318,2.347855 7.509766,4.636673 11.371506,6.848999c3.860809,2.211792 7.751984,4.329575 11.6595,6.327011c3.85434,1.970261 11.470871,5.522919 15.203506,7.066666c3.628326,1.50061 7.205917,2.838531 10.724991,4.016998c3.421783,1.145889 6.78949,2.14122 10.095001,2.991013c3.215256,0.826569 9.457733,2.118698 12.48233,2.576157c2.95491,0.44693 5.877579,0.759186 8.772003,0.859497c2.875778,0.09967 5.763199,0.001434 8.645996,-0.346497c2.930283,-0.353668 8.922729,-1.776108 11.979507,-2.846848c3.157837,-1.10614 6.316772,-2.47345 9.454498,-4.031998c3.180695,-1.57988 6.298492,-3.345444 9.328491,-5.255997c3.014648,-1.900848 8.678497,-5.995804 11.264343,-8.16983c2.524841,-2.122726 4.877228,-4.346054 6.976501,-6.7155c2.067078,-2.333099 3.917542,-4.820969 5.464508,-7.471497c1.549896,-2.655533 3.872925,-8.496902 4.609161,-11.644669c0.752411,-3.216873 1.174438,-6.568893 1.316986,-9.970505c0.143646,-3.42746 -0.005219,-6.875671 -0.428986,-10.276505c-0.420044,-3.370941 -1.973969,-9.832825 -3.09967,-12.829498c-1.098877,-2.925308 -2.445129,-5.682892 -3.977997,-8.25c-1.50119,-2.514069 -3.188629,-4.846771 -5.003998,-6.98999c-1.776398,-2.097214 -5.614746,-5.775925 -7.615997,-7.361679c-1.952698,-1.547287 -3.97049,-2.921448 -6.012024,-4.154999c-2.001648,-1.209457 -4.047974,-2.253326 -6.065979,-3.25499l-2.006012,-0.931671" filter="url(#svg_6_blur)"/>
  <path fill="none" stroke="#000000" stroke-width="0" stroke-dasharray="null" stroke-linejoin="null" stroke-linecap="null" id="svg_7" d="m318,108c1.814667,-0.010674 2.810608,-0.362793 2.104156,-0.708328c-0.577332,-0.282379 -1.452942,-0.524315 -2.605499,-0.861015c-3.32074,-0.970078 -5.582275,-1.54258 -8.253326,-2.186653c-3.072723,-0.740952 -6.562408,-1.507851 -10.474487,-2.244003c-4.312927,-0.811577 -9.046082,-1.603958 -14.209503,-2.244003c-11.541046,-1.430565 -17.95401,-1.830437 -24.693359,-2.143997c-6.990356,-0.325226 -14.166168,-0.440567 -21.430481,-0.237c-7.285187,0.204163 -14.529327,0.605278 -21.565506,1.653c-13.450272,2.002823 -19.597687,3.991158 -25.29332,6.197327c-5.451767,2.111725 -10.471649,4.674004 -14.974503,7.608002c-4.323975,2.817444 -8.251755,5.921875 -11.509506,9.408005c-6.150742,6.581924 -8.233063,10.42598 -10.00267,14.141342c-1.712845,3.596191 -2.911392,7.317078 -3.52951,11.033981c-0.604767,3.636658 -0.759979,7.323059 -0.154495,10.853989c1.202835,7.014343 3.030304,10.289581 5.007996,13.366684c2.03363,3.164124 4.664368,6.110367 7.7715,8.758484c3.270325,2.787201 7.082611,5.340973 11.416504,7.453506c9.508255,4.63475 15.205093,6.087158 21.125336,7.577332c6.168259,1.552597 12.635223,2.74678 19.291489,3.615005c6.74971,0.880417 13.58609,1.475372 20.416504,1.544998c13.39769,0.136581 19.866638,-0.659958 26.100006,-1.578659c6.056732,-0.89267 11.874969,-2.133881 17.421021,-3.633011c5.35083,-1.44635 10.430328,-3.09462 15.17099,-4.983002c8.795563,-3.503616 12.63092,-5.575439 16.194672,-7.538666c3.329681,-1.83429 6.338928,-3.696716 9.050964,-5.520004c2.489044,-1.673355 4.687744,-3.291138 6.621002,-4.799988c3.199371,-2.496979 4.381561,-3.586548 5.484009,-4.353348c0.922943,-0.641922 1.833313,-0.979996 2.707489,-1.117493l0.919159,0.117493l1.019196,0.387512l1.174133,0.672501"/>
  <path fill="none" stroke="#000000" stroke-width="0" stroke-dasharray="null" stroke-linejoin="null" stroke-linecap="null" id="svg_8" d="m380,289c-9,5.166656 -10.124054,5.519592 -11.32132,5.769348c-1.247498,0.260223 -2.567169,0.440857 -3.949524,0.563995c-1.443268,0.128571 -2.956024,0.197083 -4.534485,0.203979c-3.361511,0.014679 -5.158417,-0.063934 -7.066681,-0.251984c-2.085632,-0.205536 -4.377319,-0.662659 -6.940491,-1.264496l-2.878174,-0.836853l-3.242157,-1.112823l-3.655182,-1.42984"/>
  <polygon stroke-width="5" stroke="#000000" points="210,31.34917214012836 227.31634817406567,81.166091444632 280.0460997666636,82.24064254151583 238.01843990666544,114.10374298339367 253.29087043516415,164.58477138842 210,134.46033114394865 166.70912956483585,164.58477138842 181.98156009333456,114.10374298339367 139.95390023333644,82.24064254151584 192.68365182593433,81.166091444632 210,31.34917214012836 227.31634817406567,81.166091444632 " strokeWidth="5" strokecolor="#000000" fill="#ffd4aa" orient="point" r2="29.460331" r="73.650828" point="5" shape="star" id="svg_1" cy="105" cx="210"/>
 </g>
</svg>